# xmcd
#
# Track frame offsets: 
#        150
#        13036
#        22212
#        34155
#        43448
#        54823
#        67196
#        83283
#        92950
#        102141
#        113806
#        124020
#
# Disc length: 1789 seconds
#
# Revision: 0
# Processed by: cddbd v1.5.2PL0 Copyright (c) Steve Scherf et al.
# Submitted via: ExactAudioCopyFreeDBPlugin 1.0
#
DISCID=9b06fb0c
DTITLE=Josh Graves - World Famous Dobro
DYEAR=2001
DGENRE=Blues
TTITLE0=Great Speckled Bird
TTITLE1=Nine Pound Hammer
TTITLE2=Gathering Flowers from the Hillside
TTITLE3=Wreck of the old '97
TTITLE4=Silent Night
TTITLE5=Down in the Valley
TTITLE6=What a Friend we have in Jesus
TTITLE7=Beautiful Brown Eyes
TTITLE8=Maple on the Hill
TTITLE9=Columbus Stockade Blues
TTITLE10=In the Pines
TTITLE11=Just Because
EXTD=
EXTT0=
EXTT1=
EXTT2=
EXTT3=
EXTT4=
EXTT5=
EXTT6=
EXTT7=
EXTT8=
EXTT9=
EXTT10=
EXTT11=
PLAYORDER=
